<svg width="150" height="234" viewBox="0 0 150 234" fill="none" xmlns="http://www.w3.org/2000/svg">
<path d="M54.0551 86.7961L53.6033 87.4672C53.4665 87.6618 53.3227 87.8362 53.1858 88.0174C52.9052 88.3798 52.6109 88.6884 52.3166 89.0575C51.7212 89.7285 51.1189 90.3996 50.4755 90.9901C49.1891 92.202 47.8168 93.3232 46.369 94.3452C44.923 95.367 43.4016 96.2821 41.8175 97.0831C41.0167 97.4655 40.2228 97.8615 39.3947 98.1836L38.1558 98.6667L37.8068 98.7942C37.6151 98.8546 37.4372 98.9217 37.225 98.9687C36.8111 99.0699 36.3854 99.1173 35.9588 99.1096C35.1457 99.1041 34.3456 98.9086 33.6249 98.5392C33.0455 98.2425 32.513 97.865 32.0439 97.4186C31.3009 96.7 30.6587 95.8876 30.1344 95.0029C29.2379 93.4709 28.5062 91.8517 27.951 90.1714C26.8743 87.0039 26.1044 83.7439 25.6514 80.4347L28.5123 79.8174C29.0324 81.2869 29.5663 82.8035 30.1549 84.2663C30.7435 85.7292 31.3321 87.1853 32.0165 88.5676C32.6396 89.9019 33.3816 91.1796 34.2341 92.3858C34.5728 92.8859 34.9805 93.3375 35.4455 93.7279C35.5791 93.8354 35.7293 93.9215 35.8904 93.9829C35.9862 93.9829 35.9794 93.9829 35.9315 93.9829H35.8835L36.1094 93.8755L37.1292 93.3924C37.8136 93.0703 38.4638 92.7213 39.1209 92.3321C40.417 91.5708 41.6691 90.7396 42.8715 89.8426C44.058 88.9284 45.1849 87.9423 46.2458 86.8901C46.7796 86.3801 47.2861 85.8365 47.772 85.2863C48.0116 85.0112 48.2511 84.7361 48.4565 84.4609L48.785 84.0516L49.0519 83.7027L54.0551 86.7961Z" fill="#FFBE9D"/>
<path d="M45.7653 86.5088L49.2354 94.6685L46.7235 96.2052L42.8223 88.8037L45.7653 86.5088Z" fill="#263238"/>
<path d="M55.5873 79.6373C49.9271 79.5635 44.1779 86.5892 44.0342 86.7637L48.5103 97.0842C48.5103 97.0842 58.4687 89.1593 58.9684 86.0591C59.4885 82.8314 59.1737 79.6843 55.5873 79.6373Z" fill="#3075F3"/>
<path opacity="0.3" d="M55.5873 79.6373C49.9271 79.5635 44.1779 86.5892 44.0342 86.7637L48.5103 97.0842C48.5103 97.0842 58.4687 89.1593 58.9684 86.0591C59.4885 82.8314 59.1737 79.6843 55.5873 79.6373Z" fill="black"/>
<path d="M28.0448 78.7507L24.1299 75.7646L23.3359 81.6429C23.3359 81.6429 27.1414 83.1058 29.1673 81.8375L29.1125 80.7638C29.0921 80.3729 28.9862 79.9908 28.802 79.6434C28.6178 79.2961 28.3595 78.9917 28.0448 78.7507Z" fill="#FFBE9D"/>
<path d="M18.916 75.4697L19.1624 79.9321L23.3579 81.6432L24.1519 75.765L18.916 75.4697Z" fill="#FFBE9D"/>
<path d="M104.701 78.2738L110.751 76.7909L106.522 72.5566C106.522 72.5566 102.6 74.1269 103.558 77.482L104.701 78.2738Z" fill="#FFBE9D"/>
<path d="M113.756 75.738L113.256 71.0811L106.487 72.5573L110.717 76.7916L113.756 75.738Z" fill="#FFBE9D"/>
<path d="M84.9686 227.519L79.3358 228.049L74.6338 215.017L80.2666 214.48L84.9686 227.519Z" fill="#FFBE9D"/>
<path d="M145.268 200.121L141.12 204.066L130.457 195.907L134.612 191.961L145.268 200.121Z" fill="#FFBE9D"/>
<path d="M139.922 203.302L143.111 197.753C143.165 197.657 143.252 197.584 143.356 197.547C143.461 197.51 143.576 197.512 143.679 197.551L148.525 199.39C148.645 199.441 148.752 199.516 148.84 199.611C148.929 199.705 148.996 199.817 149.037 199.938C149.078 200.06 149.093 200.189 149.08 200.316C149.067 200.444 149.027 200.567 148.963 200.678C147.82 202.597 147.17 203.463 145.767 205.906C144.904 207.409 143.22 210.851 142.03 212.925C140.839 214.998 138.683 213.951 138.991 212.985C140.36 208.643 140.127 206.221 139.757 204.302C139.689 203.96 139.748 203.606 139.922 203.302Z" fill="#263238"/>
<path d="M78.2137 226.358H85.058C85.1809 226.361 85.2997 226.402 85.3971 226.476C85.4944 226.549 85.565 226.652 85.5987 226.768L87.0907 232.089C87.1285 232.215 87.1355 232.348 87.111 232.476C87.0865 232.605 87.0313 232.727 86.9499 232.831C86.8685 232.935 86.7632 233.018 86.6426 233.075C86.522 233.131 86.3894 233.159 86.2557 233.156C83.8534 233.116 82.683 232.975 79.6647 232.975C77.8099 232.975 71.7664 233.169 69.1998 233.169C66.6332 233.169 66.1678 230.68 67.2082 230.485C71.8623 229.472 75.7909 228.083 77.2213 226.754C77.4861 226.499 77.8427 226.357 78.2137 226.358Z" fill="#263238"/>
<path d="M74.6416 215.017L77.0576 221.741H82.889L80.2744 214.48L74.6416 215.017Z" fill="#FFBE9D"/>
<path d="M134.618 191.961L130.464 195.913L135.96 200.114L140.114 196.168L134.618 191.961Z" fill="#FFBE9D"/>
<path d="M50.078 81.4282C50.078 81.4282 47.7509 83.1662 63.4311 113.168L85.7845 106.089C82.4719 97.2914 80.6513 91.7957 78.9402 72.1143C75.6247 72.4739 72.34 73.0682 69.1119 73.8925C65.6602 74.7441 62.2695 75.8179 58.9618 77.1067C54.691 78.9051 50.078 81.4282 50.078 81.4282Z" fill="#3075F3"/>
<path opacity="0.3" d="M50.078 81.4282C50.078 81.4282 47.7509 83.1662 63.4311 113.168L85.7845 106.089C82.4719 97.2914 80.6513 91.7957 78.9402 72.1143C75.6247 72.4739 72.34 73.0682 69.1119 73.8925C65.6602 74.7441 62.2695 75.8179 58.9618 77.1067C54.691 78.9051 50.078 81.4282 50.078 81.4282Z" fill="black"/>
<path d="M64.382 63.002C64.7927 66.4108 66.0863 72.4769 69.0772 73.8928C69.0772 73.8928 69.2483 77.4225 63.1843 79.3416C56.5111 81.4554 58.9271 77.1071 58.9271 77.1071C62.2877 75.094 61.3158 72.4769 59.8648 70.1954L64.382 63.002Z" fill="#FFBE9D"/>
<path d="M53.1637 79.8046C54.8131 78.9658 56.9143 77.9458 58.9265 77.1205C62.2385 75.8079 65.6419 74.7293 69.1108 73.8928C71.0614 73.3694 73.0326 72.9802 74.6957 72.7051C74.8532 73.1614 74.3809 74.3424 73.2242 75.973C69.5625 78.9524 61.7532 82.8243 55.9972 82.6833C53.4785 81.764 52.8488 80.791 53.1637 79.8046Z" fill="#FFBE9D"/>
<path d="M73.2173 75.9736C70.731 79.2411 67.7596 82.125 64.4018 84.5293C61.5427 84.188 58.7251 83.5699 55.9902 82.684C61.7189 82.8249 69.5282 78.953 73.2173 75.9736Z" fill="#263238"/>
<path d="M62.5413 65.9336L59.8652 70.1812C60.2147 70.7107 60.5148 71.2699 60.7618 71.8521C62.0896 71.2146 63.7802 69.329 63.4585 67.8259C63.2676 67.1476 62.9572 66.5072 62.5413 65.9336Z" fill="#FFBE9D"/>
<path d="M65.7374 56.708C66.0796 62.3246 66.3534 64.6933 63.8347 67.9008C60.0498 72.7189 52.9386 71.927 50.8853 66.5051C49.0442 61.6401 48.791 53.2723 54.0816 50.4003C55.2441 49.7598 56.5541 49.421 57.8876 49.4161C59.221 49.4111 60.5337 49.7401 61.7011 50.3718C62.8685 51.0036 63.852 51.9172 64.5584 53.0261C65.2648 54.1349 65.6706 55.4023 65.7374 56.708Z" fill="#FFBE9D"/>
<path d="M77.0517 46.6419C78.3457 41.0622 74.7812 35.5105 69.0902 34.2418C63.3992 32.9731 57.7366 36.4678 56.4426 42.0475C55.1486 47.6272 58.7131 53.1789 64.4041 54.4476C70.0952 55.7163 75.7577 52.2215 77.0517 46.6419Z" fill="#263238"/>
<path d="M64.1077 48.8432C66.2842 50.2524 67.3656 52.4132 66.5237 53.668C65.6819 54.9228 63.2316 54.802 61.0483 53.3929C58.865 51.9837 57.7904 49.823 58.6323 48.5681C59.4741 47.3133 61.9244 47.4341 64.1077 48.8432Z" fill="#3075F3"/>
<path opacity="0.6" d="M64.1077 48.8432C66.2842 50.2524 67.3656 52.4132 66.5237 53.668C65.6819 54.9228 63.2316 54.802 61.0483 53.3929C58.865 51.9837 57.7904 49.823 58.6323 48.5681C59.4741 47.3133 61.9244 47.4341 64.1077 48.8432Z" fill="#FAFAFA"/>
<path d="M62.9508 60.5388C63.5189 59.2504 61.5409 55.4255 61.9652 53.9962C60.8291 52.9561 49.3101 56.6334 50.241 53.9492C51.1307 51.3725 53.9369 47.9569 60.3431 49.3862C67.1874 50.9162 67.7828 56.7206 67.0163 58.5726C66.2497 60.4247 65.1615 62.3506 65.1615 62.3506L62.9508 60.5388Z" fill="#263238"/>
<path d="M67.2424 61.6333C67.2567 62.7202 66.8338 63.7689 66.0652 64.5523C65.0317 65.579 63.786 64.8409 63.4643 63.5122C63.17 62.3178 63.3616 60.3382 64.6894 59.8148C64.9821 59.7031 65.2988 59.6652 65.6103 59.7046C65.9218 59.744 66.2183 59.8596 66.4724 60.0406C66.7265 60.2216 66.9302 60.4623 67.0647 60.7406C67.1993 61.0189 67.2604 61.3259 67.2424 61.6333Z" fill="#FFBE9D"/>
<path d="M63.4299 113.168C63.4299 113.168 53.0677 162.718 58.8443 179.057C64.8535 196.054 74.634 219.782 74.634 219.782L83.7711 219.272C83.7711 219.272 76.2424 189.29 74.3876 175.749C71.8484 157.081 82.7239 107.089 82.7239 107.089L63.4299 113.168Z" fill="#3075F3"/>
<path opacity="0.6" d="M63.4299 113.168C63.4299 113.168 53.0677 162.718 58.8443 179.057C64.8535 196.054 74.634 219.782 74.634 219.782L83.7711 219.272C83.7711 219.272 76.2424 189.29 74.3876 175.749C71.8484 157.081 82.7239 107.089 82.7239 107.089L63.4299 113.168Z" fill="#FAFAFA"/>
<path d="M84.4905 219.487L73.9161 220.084L72.2188 216.004L83.8814 214.816L84.4905 219.487Z" fill="#3075F3"/>
<path opacity="0.2" d="M84.4905 219.487L73.9161 220.084L72.2188 216.004L83.8814 214.816L84.4905 219.487Z" fill="black"/>
<path d="M74.3871 116.979C72.7993 122.737 74.1271 131.366 77.1248 137.419C77.8572 132.722 78.6374 128.172 79.3766 124.099C77.8366 121.18 76.1393 118.59 74.3871 116.979Z" fill="#3075F3"/>
<path opacity="0.4" d="M74.3871 116.979C72.7993 122.737 74.1271 131.366 77.1248 137.419C77.8572 132.722 78.6374 128.172 79.3766 124.099C77.8366 121.18 76.1393 118.59 74.3871 116.979Z" fill="#FAFAFA"/>
<path d="M69.3311 111.296C69.3311 111.296 84.717 147.351 94.9081 167.146C103.121 183.157 133.599 199.913 133.599 199.913L139.074 194.222C139.074 194.222 116.296 174.393 110.616 163.536C92.4373 128.783 96.1743 113.604 85.7984 106.089L69.3311 111.296Z" fill="#3075F3"/>
<path opacity="0.6" d="M69.3311 111.296C69.3311 111.296 84.717 147.351 94.9081 167.146C103.121 183.157 133.599 199.913 133.599 199.913L139.074 194.222C139.074 194.222 116.296 174.393 110.616 163.536C92.4373 128.783 96.1743 113.604 85.7984 106.089L69.3311 111.296Z" fill="#FAFAFA"/>
<path d="M140.093 193.411L132.564 201.256L127.801 198.8L136.472 190.13L140.093 193.411Z" fill="#3075F3"/>
<path opacity="0.2" d="M140.093 193.411L132.564 201.256L127.801 198.8L136.472 190.13L140.093 193.411Z" fill="black"/>
<path d="M85.6946 104.7L87.3441 106.344C87.4741 106.471 87.3441 106.686 87.084 106.766L63.6424 114.148C63.437 114.215 63.2386 114.148 63.1838 114.047L62.342 112.155C62.2804 112.021 62.4172 111.853 62.6363 111.779L85.2702 104.619C85.342 104.595 85.4189 104.59 85.4933 104.605C85.5676 104.619 85.637 104.651 85.6946 104.7Z" fill="#263238"/>
<path d="M83.4846 108.143L84.0869 107.955C84.2101 107.914 84.2786 107.82 84.2512 107.753L83.1287 105.291C83.1287 105.224 82.9645 105.197 82.8481 105.23L82.239 105.425C82.1226 105.425 82.0473 105.552 82.0815 105.626L83.204 108.082C83.2245 108.156 83.3477 108.183 83.4846 108.143Z" fill="#3075F3"/>
<path opacity="0.6" d="M83.4846 108.143L84.0869 107.955C84.2101 107.914 84.2786 107.82 84.2512 107.753L83.1287 105.291C83.1287 105.224 82.9645 105.197 82.8481 105.23L82.239 105.425C82.1226 105.425 82.0473 105.552 82.0815 105.626L83.204 108.082C83.2245 108.156 83.3477 108.183 83.4846 108.143Z" fill="#FAFAFA"/>
<path d="M65.4153 113.86L66.0245 113.665C66.1408 113.625 66.2161 113.538 66.1819 113.464L65.0594 111.008C65.0252 110.934 64.902 110.907 64.7788 110.947L64.1696 111.135C64.0533 111.176 63.978 111.263 64.0122 111.337L65.1347 113.793C65.1689 113.866 65.2921 113.893 65.4153 113.86Z" fill="#3075F3"/>
<path opacity="0.6" d="M65.4153 113.86L66.0245 113.665C66.1408 113.625 66.2161 113.538 66.1819 113.464L65.0594 111.008C65.0252 110.934 64.902 110.907 64.7788 110.947L64.1696 111.135C64.0533 111.176 63.978 111.263 64.0122 111.337L65.1347 113.793C65.1689 113.866 65.2921 113.893 65.4153 113.86Z" fill="#FAFAFA"/>
<path d="M74.4426 111.001L75.0449 110.807C75.1681 110.807 75.2434 110.679 75.2092 110.605L74.0867 108.149C74.0525 108.076 73.9225 108.049 73.8061 108.089L73.197 108.284C73.0806 108.317 73.0053 108.411 73.0396 108.478L74.162 110.941C74.1958 110.979 74.2415 111.006 74.2921 111.017C74.3426 111.028 74.3955 111.022 74.4426 111.001Z" fill="#3075F3"/>
<path opacity="0.6" d="M74.4426 111.001L75.0449 110.807C75.1681 110.807 75.2434 110.679 75.2092 110.605L74.0867 108.149C74.0525 108.076 73.9225 108.049 73.8061 108.089L73.197 108.284C73.0806 108.317 73.0053 108.411 73.0396 108.478L74.162 110.941C74.1958 110.979 74.2415 111.006 74.2921 111.017C74.3426 111.028 74.3955 111.022 74.4426 111.001Z" fill="#FAFAFA"/>
<path d="M57.3053 59.2977C57.3601 59.7473 57.1616 60.1499 56.8605 60.1835C56.5593 60.217 56.265 59.8815 56.2103 59.4252C56.1555 58.9689 56.354 58.573 56.6551 58.5394C56.9563 58.5059 57.2506 58.8414 57.3053 59.2977Z" fill="#263238"/>
<path d="M52.07 59.9218C52.1316 60.3781 51.9262 60.774 51.6251 60.8076C51.324 60.8411 51.0297 60.5056 50.9749 60.056C50.9201 59.6064 51.1186 59.2038 51.4198 59.1635C51.7209 59.1233 52.0015 59.4454 52.07 59.9218Z" fill="#263238"/>
<path d="M51.5561 59.1773L50.4062 58.9961C50.4062 58.9961 51.0838 59.7812 51.5561 59.1773Z" fill="#263238"/>
<path d="M53.5543 60.5391C53.2682 61.623 52.8331 62.6637 52.2607 63.6325C52.5185 63.7673 52.8027 63.8466 53.0942 63.8651C53.3857 63.8836 53.6779 63.8409 53.9513 63.7399L53.5543 60.5391Z" fill="#ED847E"/>
<path d="M55.7856 65.3306C55.7526 65.3309 55.7206 65.3196 55.6954 65.2986C55.6703 65.2776 55.6537 65.2485 55.6487 65.2165C55.6464 65.1804 55.6577 65.1448 55.6804 65.1164C55.7031 65.0879 55.7357 65.0686 55.7719 65.0621C56.3486 65.0058 56.9036 64.8173 57.3922 64.5119C57.8809 64.2065 58.2894 63.7928 58.5849 63.304C58.5923 63.2875 58.603 63.2726 58.6164 63.2602C58.6297 63.2479 58.6455 63.2382 58.6628 63.232C58.68 63.2257 58.6984 63.2229 58.7168 63.2238C58.7351 63.2246 58.7531 63.2291 58.7697 63.2369C58.786 63.2448 58.8005 63.2557 58.8124 63.2691C58.8243 63.2825 58.8334 63.298 58.8391 63.3149C58.8449 63.3317 58.8471 63.3495 58.8458 63.3673C58.8444 63.385 58.8395 63.4023 58.8313 63.4181C58.5203 63.9513 58.0831 64.4033 57.5567 64.7361C57.0302 65.069 56.4298 65.2728 55.8061 65.3306H55.7856Z" fill="#263238"/>
<path d="M57.9545 57.6874C57.8889 57.6867 57.8258 57.6629 57.7766 57.6203C57.5236 57.3908 57.2182 57.2241 56.8859 57.1342C56.5536 57.0443 56.2042 57.0338 55.867 57.1036C55.832 57.1138 55.7952 57.117 55.7589 57.113C55.7225 57.109 55.6874 57.098 55.6555 57.0804C55.6236 57.0629 55.5956 57.0393 55.5731 57.011C55.5507 56.9828 55.5343 56.9503 55.5248 56.9157C55.5145 56.8818 55.5113 56.8462 55.5154 56.811C55.5196 56.7758 55.5309 56.7419 55.5488 56.7111C55.5668 56.6804 55.5908 56.6535 55.6197 56.6322C55.6485 56.6108 55.6814 56.5954 55.7164 56.5869C56.1408 56.4955 56.5812 56.5045 57.0013 56.613C57.4214 56.7215 57.8092 56.9265 58.1325 57.211C58.1583 57.236 58.1789 57.2657 58.1929 57.2986C58.2069 57.3314 58.2141 57.3666 58.2141 57.4022C58.2141 57.4378 58.2069 57.4731 58.1929 57.5059C58.1789 57.5387 58.1583 57.5685 58.1325 57.5935C58.0871 57.6454 58.0237 57.6789 57.9545 57.6874Z" fill="#263238"/>
<path d="M49.366 57.842C49.3255 57.8514 49.2833 57.8514 49.2428 57.842C49.1796 57.8079 49.1323 57.7512 49.1106 57.6837C49.0889 57.6162 49.0946 57.5431 49.1265 57.4796C49.3138 57.0959 49.5914 56.7614 49.9365 56.5035C50.2816 56.2457 50.6843 56.072 51.1113 55.9967C51.1829 55.9891 51.2547 56.0095 51.3111 56.0535C51.3674 56.0974 51.4039 56.1614 51.4124 56.2315C51.4172 56.2668 51.4148 56.3027 51.4053 56.3371C51.3958 56.3714 51.3795 56.4036 51.3572 56.4317C51.3349 56.4598 51.3071 56.4833 51.2755 56.5007C51.2438 56.5182 51.209 56.5294 51.1729 56.5335C50.8351 56.5952 50.5172 56.7352 50.2457 56.9418C49.9743 57.1484 49.7571 57.4156 49.6124 57.7212C49.5859 57.7609 49.5491 57.793 49.5058 57.8142C49.4625 57.8354 49.4143 57.845 49.366 57.842Z" fill="#263238"/>
<path d="M83.4845 77.3555L83.7445 77.6776L84.0662 78.0601C84.2852 78.3151 84.5111 78.5768 84.7507 78.8318C85.2229 79.3485 85.7157 79.8585 86.2427 80.3416C87.2746 81.3336 88.3647 82.2657 89.5074 83.1331C90.6678 83.9948 91.8716 84.7989 93.1143 85.5421C93.7372 85.9112 94.3737 86.2601 95.017 86.6023L95.9958 87.0922L96.468 87.3271C96.5844 87.3807 96.7007 87.4344 96.8102 87.4747C97.1596 87.6174 97.5337 87.6926 97.9122 87.6961C98.26 87.6766 98.5939 87.555 98.8704 87.3472C99.7876 86.6018 100.512 85.6545 100.985 84.5825C101.621 83.2899 102.132 81.942 102.512 80.5563C102.935 79.1431 103.284 77.7097 103.559 76.2617L106.481 76.4429C106.573 79.7463 106.091 83.0409 105.058 86.1863C104.765 87.0438 104.386 87.8709 103.928 88.6557C103.42 89.5501 102.763 90.3552 101.985 91.0379C101.058 91.8449 99.9244 92.3899 98.7061 92.6148C97.5218 92.8173 96.3051 92.7344 95.1608 92.3732C94.8938 92.2994 94.6475 92.2055 94.3942 92.1115L93.7988 91.87L92.6352 91.3935C91.8618 91.0513 91.1021 90.7225 90.3561 90.3064C88.8587 89.5318 87.4159 88.6597 86.0374 87.6961C84.657 86.7202 83.3424 85.6578 82.1019 84.5154C81.4859 83.9383 80.8905 83.3277 80.3087 82.6969C80.0213 82.3748 79.7338 82.0259 79.46 81.7172L79.0425 81.1871C78.8988 80.9992 78.7893 80.8516 78.5977 80.5832L83.4845 77.3555Z" fill="#FFBE9D"/>
<path d="M88.3359 80.8913L84.0514 87.9439L81.9639 86.0113L85.9198 78.9453L88.3359 80.8913Z" fill="#263238"/>
<path d="M78.966 72.1144C81.43 72.0742 87.4118 78.9992 87.4118 78.9992L82.2102 87.877C82.2102 87.877 75.585 82.1531 75.5918 79.0194C75.5986 75.7514 76.1599 72.195 78.966 72.1144Z" fill="#3075F3"/>
<path opacity="0.3" d="M78.966 72.1144C81.43 72.0742 87.4118 78.9992 87.4118 78.9992L82.2102 87.877C82.2102 87.877 75.585 82.1531 75.5918 79.0194C75.5986 75.7514 76.1599 72.195 78.966 72.1144Z" fill="black"/>
<path d="M138.8 206.314C138.61 206.307 138.427 206.239 138.28 206.12C138.211 206.075 138.157 206.012 138.122 205.939C138.087 205.865 138.073 205.784 138.082 205.704C138.143 204.979 139.998 204.026 140.203 203.919C140.226 203.904 140.252 203.896 140.279 203.896C140.305 203.896 140.332 203.904 140.354 203.919C140.375 203.935 140.39 203.957 140.398 203.982C140.407 204.007 140.408 204.034 140.402 204.06C140.19 204.784 139.717 206.032 139.033 206.254C138.96 206.287 138.881 206.308 138.8 206.314ZM140.039 204.301C139.314 204.704 138.39 205.335 138.356 205.71C138.35 205.747 138.356 205.784 138.374 205.816C138.391 205.849 138.418 205.875 138.451 205.891C138.515 205.952 138.595 205.995 138.682 206.015C138.768 206.035 138.859 206.032 138.944 206.006C139.321 205.898 139.717 205.267 140.039 204.315V204.301Z" fill="#3075F3"/>
<path d="M138.546 204.556C138.245 204.581 137.945 204.508 137.691 204.348C137.608 204.279 137.552 204.183 137.532 204.079C137.513 203.974 137.53 203.865 137.581 203.771C137.618 203.674 137.677 203.586 137.754 203.515C137.832 203.444 137.924 203.392 138.026 203.362C138.82 203.1 140.271 203.885 140.332 203.919C140.355 203.931 140.373 203.948 140.387 203.969C140.4 203.991 140.407 204.015 140.408 204.04C140.407 204.063 140.4 204.085 140.388 204.105C140.376 204.125 140.359 204.142 140.339 204.154C139.78 204.419 139.167 204.557 138.546 204.556ZM138.402 203.577C138.305 203.575 138.208 203.589 138.115 203.617C138.052 203.636 137.994 203.669 137.945 203.713C137.897 203.757 137.859 203.812 137.834 203.872C137.766 204.033 137.834 204.1 137.834 204.147C138.142 204.402 139.278 204.295 139.929 204.033C139.454 203.786 138.936 203.631 138.402 203.577Z" fill="#3075F3"/>
<path d="M75.1745 227.472C74.6957 227.511 74.2164 227.401 73.8056 227.156C73.6981 227.079 73.6106 226.978 73.55 226.862C73.4894 226.745 73.4574 226.616 73.4566 226.485C73.4485 226.414 73.4602 226.343 73.4903 226.278C73.5204 226.213 73.5679 226.157 73.6277 226.116C74.2505 225.7 76.5913 226.747 77.0498 226.955C77.0761 226.968 77.0975 226.988 77.1111 227.013C77.1246 227.039 77.1295 227.068 77.1251 227.096C77.1228 227.123 77.1115 227.149 77.093 227.17C77.0746 227.19 77.0498 227.204 77.0225 227.21C76.417 227.358 75.7979 227.446 75.1745 227.472ZM74.0794 226.311C73.987 226.303 73.8941 226.321 73.8125 226.365C73.7918 226.378 73.7756 226.398 73.7659 226.42C73.7562 226.443 73.7534 226.468 73.7577 226.492C73.7601 226.58 73.7829 226.666 73.8244 226.744C73.8659 226.822 73.9251 226.89 73.9973 226.942C74.538 227.344 75.8247 227.19 76.5776 227.056C75.7878 226.686 74.9456 226.435 74.0794 226.311Z" fill="#3075F3"/>
<path d="M77.0221 227.237H76.9673C76.1939 226.928 74.6334 225.7 74.7224 225.063C74.7224 224.922 74.8319 224.747 75.1878 224.707C76.5567 224.533 77.1316 226.982 77.1521 227.083C77.1578 227.107 77.157 227.132 77.1498 227.155C77.1426 227.179 77.1292 227.2 77.111 227.217C77.0842 227.232 77.0531 227.239 77.0221 227.237ZM75.311 224.962H75.222C75.0783 224.962 74.9962 225.023 74.9893 225.09C74.9414 225.452 76.016 226.432 76.8099 226.848C76.6388 226.271 76.1323 224.962 75.311 224.962Z" fill="#3075F3"/>
<path d="M56.7914 58.5464L55.6416 58.3652C55.6416 58.3652 56.3192 59.1503 56.7914 58.5464Z" fill="#263238"/>
<path d="M13.9738 11.6543C12.7623 13.144 6.08917 14.8954 0.784861 14.4122C-1.04256 26.1688 5.34314 39.7035 5.34314 39.7035C5.34314 39.7035 19.2028 38.0863 19.545 32.4899C19.8872 26.8935 13.9738 11.6543 13.9738 11.6543Z" fill="#3075F3"/>
<path opacity="0.4" d="M13.9738 11.6543C12.7623 13.144 6.08917 14.8954 0.784861 14.4122C-1.04256 26.1688 5.34314 39.7035 5.34314 39.7035C5.34314 39.7035 19.2028 38.0863 19.545 32.4899C19.8872 26.8935 13.9738 11.6543 13.9738 11.6543Z" fill="#FAFAFA"/>
<path d="M118.89 2.70996C120.128 4.4211 126.418 6.11881 131.284 5.23305C133.892 19.1503 129.06 35.6845 129.06 35.6845C129.06 35.6845 116.145 34.5572 115.372 27.9073C114.598 21.2573 118.89 2.70996 118.89 2.70996Z" fill="#3075F3"/>
<path opacity="0.4" d="M118.89 2.70996C120.128 4.4211 126.418 6.11881 131.284 5.23305C133.892 19.1503 129.06 35.6845 129.06 35.6845C129.06 35.6845 116.145 34.5572 115.372 27.9073C114.598 21.2573 118.89 2.70996 118.89 2.70996Z" fill="#FAFAFA"/>
<path d="M28.0459 123.241C27.9474 123.255 27.847 123.25 27.7505 123.226C27.6541 123.202 27.5634 123.159 27.4839 123.101C27.4043 123.042 27.3374 122.969 27.287 122.884C27.2366 122.8 27.2038 122.707 27.1903 122.61L10.9352 9.56133C10.9219 9.4615 10.9291 9.36006 10.9565 9.26304C10.984 9.16601 11.031 9.07537 11.0948 8.99651C11.1587 8.91764 11.238 8.85216 11.3282 8.80394C11.4183 8.75573 11.5174 8.72577 11.6196 8.71583C11.7185 8.7026 11.8191 8.70859 11.9156 8.73346C12.0121 8.75834 12.1026 8.80161 12.1821 8.86081C12.2615 8.92001 12.3283 8.99397 12.3786 9.07848C12.4289 9.16298 12.4617 9.25637 12.4752 9.35331L28.7303 122.396C28.7436 122.495 28.7364 122.597 28.709 122.694C28.6815 122.791 28.6345 122.882 28.5707 122.96C28.5068 123.039 28.4275 123.105 28.3373 123.153C28.2472 123.201 28.1481 123.231 28.0459 123.241Z" fill="#3075F3"/>
<path opacity="0.2" d="M28.0459 123.241C27.9474 123.255 27.847 123.25 27.7505 123.226C27.6541 123.202 27.5634 123.159 27.4839 123.101C27.4043 123.042 27.3374 122.969 27.287 122.884C27.2366 122.8 27.2038 122.707 27.1903 122.61L10.9352 9.56133C10.9219 9.4615 10.9291 9.36006 10.9565 9.26304C10.984 9.16601 11.031 9.07537 11.0948 8.99651C11.1587 8.91764 11.238 8.85216 11.3282 8.80394C11.4183 8.75573 11.5174 8.72577 11.6196 8.71583C11.7185 8.7026 11.8191 8.70859 11.9156 8.73346C12.0121 8.75834 12.1026 8.80161 12.1821 8.86081C12.2615 8.92001 12.3283 8.99397 12.3786 9.07848C12.4289 9.16298 12.4617 9.25637 12.4752 9.35331L28.7303 122.396C28.7436 122.495 28.7364 122.597 28.709 122.694C28.6815 122.791 28.6345 122.882 28.5707 122.96C28.5068 123.039 28.4275 123.105 28.3373 123.153C28.2472 123.201 28.1481 123.231 28.0459 123.241Z" fill="black"/>
<path d="M105.502 114.839C105.604 114.852 105.707 114.845 105.806 114.818C105.905 114.791 105.998 114.745 106.078 114.682C106.159 114.62 106.225 114.542 106.275 114.453C106.324 114.365 106.354 114.268 106.364 114.168L122.654 1.1253C122.668 1.02835 122.663 0.929541 122.639 0.834535C122.614 0.73953 122.571 0.650199 122.511 0.571655C122.451 0.493112 122.376 0.426901 122.29 0.376819C122.205 0.326738 122.109 0.293771 122.011 0.279803C121.909 0.266727 121.805 0.273842 121.706 0.300727C121.607 0.327612 121.515 0.373719 121.434 0.436309C121.354 0.498899 121.287 0.576695 121.238 0.665082C121.189 0.75347 121.158 0.850645 121.148 0.950837L104.859 113.993C104.831 114.189 104.883 114.387 105.004 114.545C105.124 114.703 105.303 114.809 105.502 114.839Z" fill="#3075F3"/>
<path opacity="0.2" d="M105.502 114.839C105.604 114.852 105.707 114.845 105.806 114.818C105.905 114.791 105.998 114.745 106.078 114.682C106.159 114.62 106.225 114.542 106.275 114.453C106.324 114.365 106.354 114.268 106.364 114.168L122.654 1.1253C122.668 1.02835 122.663 0.929541 122.639 0.834535C122.614 0.73953 122.571 0.650199 122.511 0.571655C122.451 0.493112 122.376 0.426901 122.29 0.376819C122.205 0.326738 122.109 0.293771 122.011 0.279803C121.909 0.266727 121.805 0.273842 121.706 0.300727C121.607 0.327612 121.515 0.373719 121.434 0.436309C121.354 0.498899 121.287 0.576695 121.238 0.665082C121.189 0.75347 121.158 0.850645 121.148 0.950837L104.859 113.993C104.831 114.189 104.883 114.387 105.004 114.545C105.124 114.703 105.303 114.809 105.502 114.839Z" fill="black"/>
<path d="M10.2843 11.9497L13.3642 34.1475C13.3831 34.2878 13.4327 34.4224 13.5096 34.5421C13.5866 34.6618 13.6891 34.7637 13.81 34.8409C13.931 34.918 14.0676 34.9686 14.2104 34.9891C14.3532 35.0095 14.4988 34.9994 14.6373 34.9594C21.5226 33.0269 59.8094 23.3908 118.622 29.5241C118.872 29.5523 119.123 29.4872 119.326 29.3416C119.529 29.1961 119.669 28.9809 119.717 28.739C120.826 23.1157 122.736 7.09814 123.222 2.99813C123.251 2.73966 123.175 2.48031 123.011 2.2758C122.848 2.07128 122.609 1.93791 122.346 1.90434C114.447 0.924634 60.5349 -4.93349 10.9756 10.8761C10.7514 10.9489 10.5599 11.0957 10.4338 11.2915C10.3077 11.4873 10.2549 11.72 10.2843 11.9497Z" fill="#3075F3"/>
<path opacity="0.6" d="M10.2843 11.9497L13.3642 34.1475C13.3831 34.2878 13.4327 34.4224 13.5096 34.5421C13.5866 34.6618 13.6891 34.7637 13.81 34.8409C13.931 34.918 14.0676 34.9686 14.2104 34.9891C14.3532 35.0095 14.4988 34.9994 14.6373 34.9594C21.5226 33.0269 59.8094 23.3908 118.622 29.5241C118.872 29.5523 119.123 29.4872 119.326 29.3416C119.529 29.1961 119.669 28.9809 119.717 28.739C120.826 23.1157 122.736 7.09814 123.222 2.99813C123.251 2.73966 123.175 2.48031 123.011 2.2758C122.848 2.07128 122.609 1.93791 122.346 1.90434C114.447 0.924634 60.5349 -4.93349 10.9756 10.8761C10.7514 10.9489 10.5599 11.0957 10.4338 11.2915C10.3077 11.4873 10.2549 11.72 10.2843 11.9497Z" fill="#FAFAFA"/>
<path d="M20.1611 15.8287L23.4053 15.1576L25.6982 21.0023L26.2799 14.5873L29.5173 13.9162L32.3576 19.6468L32.3987 13.3458L35.6292 12.6748L35.2048 24.0153L31.858 24.6863L28.648 18.231L27.9636 25.4513L24.6168 26.1223L20.1611 15.8287Z" fill="#FAFAFA"/>
<path d="M37.2158 12.554L46.4487 11.2119L46.7499 13.5471L40.9733 14.3792L41.1992 16.1239L46.5583 15.3522L46.8457 17.5867L41.4866 18.3584L41.733 20.5259L47.6807 19.6736L48.0024 22.1565L38.5984 23.4985L37.2158 12.554Z" fill="#FAFAFA"/>
<path d="M48.7979 10.9501L52.2611 10.5811L53.0002 18.8817L58.4004 18.3114L58.6468 20.9955L49.7492 21.9349L48.7979 10.9501Z" fill="#FAFAFA"/>
<path d="M67.0989 15.868L70.1857 16.5391C70.0579 17.3142 69.7665 18.0547 69.3302 18.7132C68.9297 19.306 68.3837 19.7906 67.7423 20.1224C66.9737 20.4855 66.1376 20.691 65.2852 20.7263C64.2677 20.8327 63.2387 20.7251 62.2669 20.4109C61.4256 20.0544 60.711 19.4612 60.2136 18.7065C59.5584 17.7194 59.2046 16.5693 59.1938 15.3916C59.0143 13.8466 59.4672 12.2949 60.4531 11.0769C60.9814 10.5271 61.6174 10.0874 62.323 9.78419C63.0286 9.48095 63.7893 9.32037 64.5597 9.31205C65.7212 9.1632 66.901 9.37437 67.9339 9.91598C68.8411 10.5073 69.5242 11.3751 69.8777 12.3854L66.8457 13.2711C66.7623 13.0127 66.635 12.77 66.4693 12.5531C66.2595 12.3094 65.9914 12.1204 65.689 12.0029C65.1971 11.8059 64.6492 11.7897 64.1462 11.9574C63.6431 12.1251 63.2188 12.4654 62.9513 12.9155C62.6189 13.605 62.4931 14.373 62.5886 15.1299C62.6479 16.3512 62.876 17.1765 63.273 17.606C63.4796 17.8201 63.7347 17.9833 64.0178 18.0824C64.3009 18.1815 64.6038 18.2137 64.9019 18.1764C65.1827 18.173 65.4595 18.1115 65.7143 17.9958C65.9691 17.8802 66.196 17.713 66.3803 17.5054C66.7588 17.0288 67.0062 16.4651 67.0989 15.868Z" fill="#FAFAFA"/>
<path d="M71.4513 14.5871C71.3977 13.8152 71.5008 13.0406 71.7545 12.3081C72.0083 11.5755 72.4077 10.8995 72.9296 10.3193C73.4893 9.77923 74.1539 9.35481 74.884 9.07125C75.6141 8.7877 76.3948 8.65077 77.1799 8.66858C77.9593 8.59247 78.7463 8.67217 79.4933 8.90285C80.2403 9.13353 80.9319 9.51039 81.5261 10.0106C82.0594 10.554 82.4737 11.1987 82.7432 11.905C83.0128 12.6113 83.132 13.3642 83.0934 14.1174C83.1527 15.2195 82.9415 16.3194 82.4774 17.3249C82.0585 18.1624 81.3996 18.8619 80.5815 19.338C79.6298 19.859 78.5575 20.1317 77.4674 20.1298C76.3907 20.204 75.3111 20.0341 74.3122 19.6333C73.4529 19.246 72.736 18.6087 72.2589 17.8081C71.6976 16.8257 71.4185 15.7126 71.4513 14.5871ZM74.9213 14.4931C74.8609 15.3431 75.1027 16.1873 75.6058 16.882C75.8193 17.1188 76.0868 17.3029 76.3864 17.4195C76.686 17.536 77.0095 17.5818 77.3305 17.5531C77.6587 17.5603 77.9844 17.4947 78.2831 17.361C78.5818 17.2274 78.8458 17.0292 79.0553 16.7814C79.5327 16.0011 79.737 15.0891 79.637 14.1845C79.6956 13.3743 79.4524 12.5708 78.9526 11.9231C78.7339 11.6872 78.4626 11.504 78.1599 11.3876C77.8572 11.2712 77.5313 11.2248 77.2073 11.2521C76.8856 11.2511 76.5678 11.3212 76.2775 11.4571C75.9873 11.593 75.7319 11.7913 75.5305 12.0372C75.0489 12.7618 74.834 13.6258 74.9213 14.4864V14.4931Z" fill="#FAFAFA"/>
<path d="M85.2025 8.6416H89.7676L91.3418 15.3989L93.2788 8.68857L97.8439 8.72883L97.5359 19.8009H94.6887L94.9214 11.3526L92.4985 19.7808H89.9251L87.9745 11.3123L87.7417 19.7606H84.8945L85.2025 8.6416Z" fill="#FAFAFA"/>
<path d="M100.349 8.83594L109.636 9.24527L109.492 11.6073L103.675 11.3523L103.558 13.144L108.952 13.3788L108.808 15.6L103.415 15.3651L103.278 17.5527L109.26 17.8076L109.096 20.3173L99.6367 19.9013L100.349 8.83594Z" fill="#FAFAFA"/>
</svg>
